<svg xmlns="http://www.w3.org/2000/svg" xmlns:xlink="http://www.w3.org/1999/xlink" viewBox="0 0 512 511.82"><defs><linearGradient id="a" x1="256" y1="505.86" x2="256" y2="-1.51" gradientUnits="userSpaceOnUse"><stop offset="0" stop-color="#40358f"/><stop offset="1" stop-color="#e02a7d"/></linearGradient><linearGradient id="b" x1="461.27" y1="505.86" x2="461.27" y2="-1.51" xlink:href="#a"/><linearGradient id="c" x1="461.36" y1="505.86" x2="461.36" y2="-1.51" xlink:href="#a"/><linearGradient id="d" x1="51.45" y1="505.86" x2="51.45" y2="-1.51" xlink:href="#a"/><linearGradient id="e" x1="51.51" y1="505.86" x2="51.51" y2="-1.51" xlink:href="#a"/><linearGradient id="f" x1="255.99" y1="505.86" x2="255.99" y2="-1.51" xlink:href="#a"/><linearGradient id="g" x1="255.99" y1="505.86" x2="255.99" y2="-1.51" xlink:href="#a"/><linearGradient id="h" x1="255.99" y1="505.86" x2="255.99" y2="-1.51" xlink:href="#a"/><linearGradient id="i" x1="255.99" y1="505.86" x2="255.99" y2="-1.51" xlink:href="#a"/></defs><title>roads</title><path d="M512,11c-2.92,4.7-7.13,6-12.61,6-44.66-.18-89.33-.1-134-.11h-6.66c.42,9.32.77,18.22,1.23,27.13q3.87,73.87,7.78,147.73,4.76,92.08,9.4,184.17,3.22,62.39,6.64,124.77c.22,4.13-.38,8.06-4.33,9.77-2.27,1-6.13,1.26-7.8,0a12.5,12.5,0,0,1-4.37-8.16c-2.38-41.08-4.41-82.18-6.56-123.27Q356,288.14,351.2,197.3,346.57,108,342,18.62a7.79,7.79,0,0,0-.4-1.35H264.25c0,1.68,0,3.43,0,5.18,0,11.83.06,23.67,0,35.5,0,6.36-2.94,9.82-8,9.93-5.37.12-8.43-3.37-8.47-10-.07-11.67,0-23.33,0-35,0-1.8,0-3.59,0-5.71H170.1c-.74,13-1.52,25.93-2.19,38.85q-2.48,47.66-4.88,95.33-4.62,90.59-9.24,181.18Q150,406.42,146,480.28c-.37,7-.78,14-1.12,21-.33,6.71-3.62,10.77-8.66,10.57-5.3-.22-8.36-4.69-8-11.62q1.88-34.93,3.74-69.87,4.56-87.09,9.09-174.18,4.49-86.59,8.94-173.19,1.59-30.94,3.1-61.89c.06-1.15,0-2.3,0-4.18h-6c-44.83,0-89.66-.08-134.49.1C7.13,17,2.94,15.67,0,11V0H512Z" style="fill:url(#a)"/><path d="M512,129c-.51,2.93-.88,5.89-1.54,8.78-4.68,20.25-17.13,33.38-36.93,39.31-3.66,1.09-4.61,2.58-4.52,6.11.23,9.32.12,18.64.08,28,0,6.46-3.11,10.36-8.14,10.5s-8.47-4-8.51-10.69c-.05-9.49-.1-19,0-28.47,0-2.92-.7-4.18-3.85-5-34.2-9.17-49.6-53.39-28.34-81.84,7.36-9.84,15.57-19.09,23.87-28.18,8.47-9.28,25.17-9.19,33.64.14,8.16,9,16,18.3,23.57,27.79,5.58,7,8.49,15.34,9.61,24.27.23,1.8.69,3.57,1.05,5.35Zm-59.51,32c0-7.85-.07-15.31,0-22.78.07-6.07,3.32-10,8.13-10.07,5-.1,8.34,3.88,8.4,10.25.06,7.46,0,14.92,0,23.11,2.61-.87,4.68-1.36,6.57-2.21,19.34-8.74,26-36.32,12.7-53.72-7-9.11-14.7-17.67-22.23-26.36-4.12-4.76-6.4-4.69-10.49.05q-10.46,12.1-20.77,24.33a38.05,38.05,0,0,0-9,29.21C427.11,146.49,438.51,159,452.49,161Z" style="fill:url(#b)"/><path d="M512,393c-.5,3.09-.84,6.22-1.53,9.27-4.63,20.31-17.26,33.21-36.9,39.54-1.41.45-2.84.82-4.5,1.3,0,11.36.07,22.51,0,33.67-.05,5.46-2.73,8.66-7.21,9.16-5.45.62-9.25-2.87-9.35-9.09q-.24-15,0-30c0-2.83-.83-4.22-3.64-4.83-23.1-5-39.16-29.12-38.06-54.33a49.69,49.69,0,0,1,12.1-31c6.71-7.85,13.33-15.79,20.09-23.6,9.08-10.5,26.25-10.73,35.45-.34q10.94,12.34,21.41,25.1a50.79,50.79,0,0,1,11.24,27.29c.22,2,.63,3.92.95,5.87Zm-42.92,34c5-2.79,9.59-4.49,13.14-7.41a36.49,36.49,0,0,0,4.91-51c-6.85-8.36-14-16.52-21-24.72-3.93-4.57-6.5-4.57-10.52.1-7.17,8.32-14.4,16.59-21.33,25.11-8.08,9.94-10.57,21.33-7.27,33.74,3.21,12.07,14.73,22.18,25.42,22.35q0-10.2,0-20.4c0-7.93,2.67-11.74,8.22-11.86s8.41,3.74,8.44,11.56C469.1,411.37,469.08,418.35,469.08,427Z" style="fill:url(#c)"/><path d="M59.56,178.46c0,2,0,3.84,0,5.65,0,9.49.12,19-.07,28.48-.11,5.55-3.88,9.26-8.6,9.06S43,217.82,43,212.5q-.16-15,0-30c0-2.91-.65-4.16-3.84-5C3.76,168-11,122.16,12.09,93.68,19,85.14,26.16,76.78,33.42,68.53,42.68,58,59.53,57.87,68.85,68.29c7.32,8.19,14.54,16.5,21.37,25.1C113.11,122.24,102.17,168.18,59.56,178.46Zm0-17.21c1.71-.36,2.51-.49,3.29-.71,18.05-4.94,32.39-34.82,15.25-55.83C70.94,96,63.52,87.4,56.12,78.85c-3.52-4.06-6-4.16-9.47-.19-7.84,9-15.78,18-23.12,27.49-6.75,8.68-8.9,18.77-6.69,29.68,2.64,13,14.29,24.31,26.07,24.86,0-7,0-14,0-20.93a19.64,19.64,0,0,1,.36-5.45,7.94,7.94,0,0,1,8.61-6.08c4.39.22,7.49,3.81,7.61,9C59.67,145,59.54,152.78,59.54,161.25Z" style="fill:url(#d)"/><path d="M42.9,443.08c-13-2.69-23.41-9.06-31.05-19.7-15.4-21.43-14.22-48.61,3-68.55,6.2-7.18,12.23-14.52,18.51-21.63a23.92,23.92,0,0,1,36.08.18c7,8,14,16.08,20.67,24.39,22.67,28.27,12.35,73.14-26.71,84-3,.84-3.93,2.18-3.88,5.17.15,10,.17,20,0,30-.11,6.25-4.52,10.1-9.93,8.9-4.81-1.06-6.69-4.45-6.68-9.18C42.92,465.7,42.9,454.71,42.9,443.08Zm16.66-16.5c4.2-2,7.68-3.15,10.62-5.11,16.55-11,20.65-35.83,8.31-51.61-7.07-9-14.72-17.63-22.24-26.3-3.81-4.39-6.28-4.27-10.17.24C39,352,32,360.19,25,368.49a38.44,38.44,0,0,0-9,22.29c-1.25,16.72,11.13,32.93,26.9,34.64,0-1.83,0-3.61,0-5.39,0-6.49-.08-13,.11-19.47a7.45,7.45,0,0,1,6.2-7.45c3.54-.83,6.87,0,8.63,3.34a16.53,16.53,0,0,1,1.63,7.11C59.68,410.84,59.56,418.12,59.56,426.58Z" style="fill:url(#e)"/><path d="M247.73,145c0-8-.05-16,0-24,.05-6.17,3.14-9.82,8.15-9.89s8.31,3.64,8.34,9.7q.1,24.23,0,48.46c0,6.14-3.26,9.67-8.39,9.58s-8.05-3.63-8.1-9.89C247.68,161,247.72,153,247.73,145Z" style="fill:url(#f)"/><path d="M247.71,255.92c0-8-.06-16,0-24,.06-6.24,3.08-9.76,8.18-9.81s8.29,3.49,8.32,9.66q.11,24.23,0,48.46c0,6-3.4,9.72-8.42,9.61-4.84-.1-8-3.66-8.05-9.46-.1-8.16,0-16.32,0-24.48Z" style="fill:url(#g)"/><path d="M264.25,366.75c0,8.16.07,16.32,0,24.48-.06,5.92-3.54,9.77-8.46,9.62-4.76-.14-8-3.84-8-9.55q-.1-24.48,0-49c0-5.85,3.18-9.21,8.19-9.23s8.18,3.28,8.26,9.15C264.34,350.43,264.25,358.59,264.25,366.75Z" style="fill:url(#h)"/><path d="M264.26,478c0,8,.05,16,0,24-.06,6-3.33,9.87-8.23,9.88s-8.22-3.8-8.25-9.85q-.1-24.23,0-48.46c0-6,3.38-9.6,8.49-9.52,4.81.08,7.93,3.64,8,9.49C264.34,461.64,264.26,469.8,264.26,478Z" style="fill:url(#i)"/></svg>