<svg xmlns="http://www.w3.org/2000/svg" viewBox="0 0 401.11 398.8"><title>search-map-white</title><path d="M.16,398.26c0-16.94,0-33.25,0-49.57Q.16,200,0,51.35c0-6.45,1.93-9,8-10.93C48.19,27.38,88.22,13.82,128.36.6a13.85,13.85,0,0,1,8.11,0q63,20.75,125.84,41.9a18.93,18.93,0,0,0,12.86.06Q335,22.42,394.92,2.59c1.81-.6,3.65-1.11,6.09-1.84,0,15,0,29.32,0,43.68q0,152.67.1,305.34c0,4.8-1.5,6.63-5.93,8.08-40.49,13.29-80.87,26.91-121.36,40.19a17.33,17.33,0,0,1-10.13,0q-62.25-20.43-124.33-41.41a20.36,20.36,0,0,0-13.89-.05C85.77,370,46,383.2,6.25,396.45,4.44,397.05,2.6,397.54.16,398.26ZM37.32,206.63q0,64.75,0,129.5c0,8.88,1.67,10,10.25,7.15C74,334.45,100.43,325.52,127,317a19.22,19.22,0,0,1,11.14.07c42.18,13.82,84.26,28,126.42,41.86a14.81,14.81,0,0,0,8.65,0c27.69-9,55.24-18.47,83-27.38,6-1.92,7.84-4.88,7.83-11.05q-.28-128.7-.13-257.39c0-9.06-1.73-10.26-10.56-7.31-25.93,8.65-51.89,17.2-77.75,26.05a20.18,20.18,0,0,1-13.85-.14c-41-13.83-82.16-27.43-123.22-41.21a17.3,17.3,0,0,0-11.8-.14q-41.09,14-82.36,27.38c-5.38,1.74-7.1,4.46-7.08,10C37.4,120.66,37.32,163.65,37.32,206.63Z" style="fill:#fff"/><path d="M297.61,270l-26.75,26.77c-8.7-8.88-17.59-18-26.5-27-4-4-8.21-7.88-12-12.13-3.26-3.69-6.27-3.9-10.72-1.84-27.33,12.64-53.51,10.31-77.83-7.53-26.42-19.38-36.89-54.51-25.91-85.18a75.31,75.31,0,1,1,138.94,57.55c-2.15,4.46-1.63,7.32,1.86,10.71C271.83,244.1,284.67,257.1,297.61,270ZM189,138.6c-28.15.42-49.69,22.53-49.36,50.66.31,26.66,23.16,48.85,50,48.56,27.28-.29,49.73-23.35,49.22-50.55C238.4,160.32,215.74,138.2,189,138.6Z" style="fill:#fff"/></svg>