<svg xmlns="http://www.w3.org/2000/svg" viewBox="0 0 452.86 406.43"><title>search-national-white</title><path d="M429.91,406.43l-43.32-42.27A87.3,87.3,0,0,1,353,376c-39.94,5.33-80.06-24.3-86.19-64-6.87-44.46,20.21-82.91,64.33-91.33,44.63-8.52,89.44,27.32,91.14,72.65.6,15.82-2.42,30.64-10.55,44.24-1.78,3-1.48,4.64.91,7,11.79,11.57,23.39,23.33,35.13,35a44.87,44.87,0,0,0,5.09,3.78L431,406.43ZM343.5,344.94a47.12,47.12,0,0,0,47.64-46.19c.56-25.4-20.71-47.37-46.23-47.75a47,47,0,1,0-1.41,93.94Z" style="fill:#fff"/><path d="M393.9,219.73c-8.31-3-16-5.47-23.25-8.72-1.48-.66-2.26-4.33-2.27-6.62-.14-32.7-.1-65.4-.1-98.1V99.49h-343V338.16h7.21q110.78,0,221.55-.12c5,0,7.8,1.34,9.65,5.93s4.38,8.88,6.57,13.33c3.2,6.5,2.81,7.14-4.3,7.14H19.11c-.92,0-1.84,0-2.76,0C5.54,364,0,362,0,348.31.19,261.6,0,174.89,0,88.17A17.59,17.59,0,0,1,4,76.27c7.84-9.9,14.4-20.8,21.71-31.13,7.82-11.05,15.95-21.88,23.86-32.87,1.83-2.54,2.7-6.48,5.09-7.75C59,2.21,64.11.23,68.9.22Q190.15-.16,311.4,0c4.23,0,8.45.12,12.68,0,7.91-.27,13.48,2.47,18.16,9.55,11.54,17.46,24,34.32,36.26,51.3C382.72,66.73,387.76,72,391.75,78a18.8,18.8,0,0,1,2.67,9.85c.17,42.44.12,84.87.1,127.31A43.59,43.59,0,0,1,393.9,219.73ZM37.78,74.21h316a23.58,23.58,0,0,0-1.8-4.14C342.32,56.39,332.43,42.9,323.13,29c-2.36-3.52-4.84-4.23-8.51-4.22q-90,.08-180.1,0c-19.46,0-38.92,0-58.38.05-1.71,0-4.05.17-5,1.24C68.58,29,66.63,32.4,64.4,35.58,59.68,42.33,54.89,49,50.21,55.82,46.21,61.61,42.32,67.47,37.78,74.21Z" style="fill:#fff"/></svg>