<svg xmlns="http://www.w3.org/2000/svg" xmlns:xlink="http://www.w3.org/1999/xlink" viewBox="0 0 459.23 511.75"><defs><linearGradient id="a" x1="187.18" y1="502.05" x2="187.18" y2="-8.73" gradientUnits="userSpaceOnUse"><stop offset="0" stop-color="#40358f"/><stop offset="1" stop-color="#e02a7d"/></linearGradient><linearGradient id="b" x1="336.5" y1="502.05" x2="336.5" y2="-8.73" xlink:href="#a"/><linearGradient id="c" x1="187.04" y1="502.05" x2="187.04" y2="-8.73" xlink:href="#a"/><linearGradient id="d" x1="148.73" y1="502.05" x2="148.73" y2="-8.73" xlink:href="#a"/><linearGradient id="e" x1="135.29" y1="502.05" x2="135.29" y2="-8.73" xlink:href="#a"/></defs><title>search-text</title><path d="M0,0H374.36V185.66a29.21,29.21,0,0,1-3.3-2.05,145.61,145.61,0,0,0-38.3-23.13c-3.25-1.32-4-3-4-6.29.11-34.16.06-68.33.06-102.49,0-1.82,0-3.65,0-5.92H45.63V466.11H328.87c0-7.78-.15-15.27.12-22.73.06-1.58,1.23-4,2.52-4.52A159.39,159.39,0,0,0,372.26,414a11,11,0,0,1,2.08-1v98.76H0Z" style="fill:url(#a)"/><path d="M459.23,413.9l-30,29.63c-.83-.79-2-1.89-3.17-3-16.48-16.51-33-33-49.38-49.59-2.27-2.3-3.8-2.62-6.72-.88-59.29,35.39-135.51,4.23-152.92-62.42-14.62-56,20.5-113.87,76.87-126.77,54.73-12.52,109.84,21.45,122.91,76,6.58,27.43,2.87,53.5-11.59,77.84-1.67,2.8-1.55,4.45.82,6.8C423,378.19,439.79,395.11,456.63,412A23.1,23.1,0,0,0,459.23,413.9ZM316.85,363c33.48.28,61.34-27.43,61.49-61.15.15-33.33-27.35-61.37-60.55-61.75a61.45,61.45,0,1,0-.94,122.9Z" style="fill:url(#b)"/><path d="M281.81,150.75H92.27V105.83H281.81Z" style="fill:url(#c)"/><path d="M92.26,248.79V203.94H205.2c-2.63,3.63-5.18,6.49-7,9.76-5.81,10.62-11.26,21.43-17.07,32-.84,1.53-2.91,3.39-4.42,3.4-27.29.19-54.57.11-81.86.08A17.38,17.38,0,0,1,92.26,248.79Z" style="fill:url(#d)"/><path d="M178.26,348.85H92.33V303c8.77,0,17.37,0,26,0,16.16,0,32.31.25,48.47.07,3.74,0,4.6,1,5.08,4.64C173.68,321.28,176,334.82,178.26,348.85Z" style="fill:url(#e)"/></svg>