<svg xmlns="http://www.w3.org/2000/svg" xmlns:xlink="http://www.w3.org/1999/xlink" viewBox="0 0 470.2 426.99"><defs><linearGradient id="a" x1="342.09" y1="397.51" x2="342.09" y2="-22.58" gradientUnits="userSpaceOnUse"><stop offset="0" stop-color="#40358f"/><stop offset="1" stop-color="#e02a7d"/></linearGradient><linearGradient id="b" x1="278.2" y1="397.51" x2="278.2" y2="-22.58" xlink:href="#a"/><linearGradient id="c" x1="278.18" y1="397.51" x2="278.18" y2="-22.55" xlink:href="#a"/><linearGradient id="d" x1="42.8" y1="397.51" x2="42.8" y2="-22.58" xlink:href="#a"/><linearGradient id="e" x1="42.78" y1="397.51" x2="42.78" y2="-22.58" xlink:href="#a"/><linearGradient id="f" x1="42.87" y1="397.51" x2="42.87" y2="-22.58" xlink:href="#a"/><linearGradient id="g" x1="43.19" y1="397.51" x2="43.19" y2="-22.58" xlink:href="#a"/><linearGradient id="h" x1="42.8" y1="397.51" x2="42.8" y2="-22.58" xlink:href="#a"/><linearGradient id="i" x1="149.3" y1="397.51" x2="149.3" y2="-22.58" xlink:href="#a"/><linearGradient id="j" x1="149.74" y1="397.51" x2="149.74" y2="-22.58" xlink:href="#a"/><linearGradient id="k" x1="150.01" y1="397.51" x2="150.01" y2="-22.58" xlink:href="#a"/></defs><title>search-region</title><path d="M439,427l-58-57.87C322,404.83,259.73,379.86,232.41,339.2A107.73,107.73,0,0,1,385,191.67c40.4,29.12,60.92,89.92,27,146.41l58.25,58.06L440.55,427ZM320.77,342.63c35.06.67,64.39-28,64.9-63.38.51-34.6-28.2-64.11-63-64.74-35.24-.64-64.57,27.83-65.08,63.19A63.86,63.86,0,0,0,320.77,342.63Z" style="fill:url(#a)"/><path d="M428.64,85.86V128H127.76V85.86Z" style="fill:url(#b)"/><path d="M428.56.2v42H127.81V.2Z" style="fill:url(#c)"/><path d="M0,213.83V171.47H85.6v42.36Z" style="fill:url(#d)"/><path d="M85.36,300.06H.2V257.19H85.36Z" style="fill:url(#e)"/><path d="M85.64,85.78v42.35H.09V85.78Z" style="fill:url(#f)"/><path d="M.45,386.19V343.34c2.32-.12,4.71-.35,7.09-.35,23.38,0,46.75.15,70.12-.13,6-.07,8.6,1.33,8.25,7.9-.53,9.77.11,19.61-.34,29.39-.1,2.08-2.75,5.77-4.26,5.79C54.48,386.29,27.65,386.19.45,386.19Z" style="fill:url(#g)"/><path d="M85.56,0V42.4H0V0Z" style="fill:url(#h)"/><path d="M127.46,213.88c0-13.22-.13-26,.18-38.74,0-1.39,2.52-3.88,3.92-3.91,13-.3,26-.18,39.61-.18v42.83Z" style="fill:url(#i)"/><path d="M171.37,257.21v42.51H128.12V257.21Z" style="fill:url(#j)"/><path d="M171.07,385.87H128.92V343c13,0,26.13-.1,39.3.19,1,0,2.7,2.79,2.73,4.31C171.17,360,171.07,372.51,171.07,385.87Z" style="fill:url(#k)"/></svg>